<svg viewBox="0 0 24 24" fill="none" xmlns="http://www.w3.org/2000/svg">
<path d="M23 12.4739C23 11.551 22.9251 10.8776 22.763 10.1791H12.2245V14.3446H18.4104C18.2857 15.3798 17.6122 16.9388 16.1156 17.9863L16.0946 18.1258L19.4267 20.7071L19.6576 20.7302C21.7777 18.7721 23 15.8911 23 12.4739Z" fill="#4285F4"/>
<path d="M12.2245 23.449C15.2551 23.449 17.7992 22.4512 19.6576 20.7302L16.1156 17.9863C15.1678 18.6473 13.8957 19.1088 12.2245 19.1088C9.25625 19.1088 6.737 17.1508 5.83895 14.4445L5.70732 14.4556L2.24256 17.137L2.19725 17.263C4.04304 20.9296 7.83443 23.449 12.2245 23.449Z" fill="#34A853"/>
<path d="M5.83895 14.4445C5.602 13.7461 5.46486 12.9977 5.46486 12.2245C5.46486 11.4512 5.602 10.7029 5.82649 10.0045L5.82021 9.85578L2.31203 7.1313L2.19725 7.18589C1.43651 8.70745 1 10.4161 1 12.2245C1 14.0329 1.43651 15.7414 2.19725 17.263L5.83895 14.4445Z" fill="#FBBC05"/>
<path d="M12.2245 5.34011C14.3322 5.34011 15.7539 6.25053 16.5646 7.01136L19.7324 3.91837C17.7869 2.10998 15.2551 1 12.2245 1C7.83443 1 4.04304 3.51925 2.19725 7.18589L5.82649 10.0045C6.737 7.29818 9.25625 5.34011 12.2245 5.34011Z" fill="#EB4335"/>
</svg>
