<svg viewBox="0 0 23 27" fill="none" xmlns="http://www.w3.org/2000/svg">
<path d="M4.49848 11.3246L9.10498 5.56646C10.4158 3.92791 11.0712 3.10864 11.646 3.01824C12.1435 2.93999 12.6471 3.11663 12.9867 3.48853C13.3791 3.91818 13.3791 4.96736 13.3791 7.06573V8.82385C13.3791 9.66393 13.3791 10.084 13.5426 10.4048C13.6864 10.6871 13.9158 10.9166 14.1981 11.0604C14.5189 11.2239 14.939 11.2239 15.7791 11.2239H16.3856C17.9841 11.2239 18.7834 11.2239 19.1939 11.5515C19.5509 11.8365 19.7586 12.2687 19.7581 12.7255C19.7576 13.2507 19.2583 13.8749 18.2596 15.1231L13.6531 20.8812C12.3423 22.5198 11.6869 23.3391 11.1121 23.4295C10.6146 23.5077 10.111 23.3311 9.77142 22.9592C9.37906 22.5295 9.37906 21.4803 9.37906 19.382V17.6239C9.37906 16.7838 9.37906 16.3637 9.21557 16.0429C9.07176 15.7606 8.84229 15.5312 8.56005 15.3873C8.23918 15.2239 7.81914 15.2239 6.97906 15.2239H6.37256C4.77401 15.2239 3.97474 15.2239 3.56422 14.8962C3.2072 14.6112 2.99951 14.179 3 13.7222C3.00057 13.197 3.49987 12.5728 4.49848 11.3246Z" fill="white"/>
<path fill-rule="evenodd" clip-rule="evenodd" d="M2.08942 9.53358C1.64842 10.0846 1.19891 10.6463 0.872444 11.1401C0.5602 11.6124 0.00128842 12.5281 2.63009e-06 13.719C-0.00147723 15.0895 0.621615 16.3859 1.69267 17.2408C2.62345 17.9838 3.68765 18.1194 4.2515 18.1706C4.84104 18.2242 5.56043 18.224 6.26621 18.2239L6.37906 18.2239L6.37905 19.4979C6.37896 20.4465 6.37886 21.3427 6.43884 22.0499C6.48769 22.626 6.61205 23.9484 7.55612 24.9822C8.57495 26.0979 10.0857 26.6278 11.5782 26.3931C12.9612 26.1756 13.8844 25.2206 14.2825 24.8013C14.7711 24.2866 15.3308 23.5867 15.9233 22.8459L20.6687 16.9142C21.1097 16.3632 21.5592 15.8015 21.8857 15.3077C22.1979 14.8354 22.7568 13.9197 22.7581 12.7288C22.7596 11.3583 22.1365 10.0619 21.0655 9.20695C20.1347 8.46398 19.0705 8.32837 18.5066 8.27715C17.9171 8.22361 17.1977 8.22375 16.4919 8.22388L16.3791 8.2239L16.3791 6.94985C16.3792 6.00126 16.3793 5.10508 16.3193 4.39789C16.2704 3.82181 16.1461 2.4994 15.202 1.46559C14.1832 0.349902 12.6724 -0.180031 11.1799 0.0547115C9.79689 0.272229 8.87368 1.22717 8.47566 1.64649C7.98705 2.16125 7.42729 2.8611 6.83479 3.60188L2.08942 9.53358ZM13.7253 2.81421C13.1592 2.19439 12.32 1.89998 11.4908 2.0304C10.8382 2.13303 10.3254 2.60296 9.92635 3.02336C9.49745 3.47521 8.98429 4.11668 8.35497 4.90335L3.68752 10.7377C3.21396 11.3296 2.81587 11.8272 2.54092 12.243C2.27036 12.6523 2.00074 13.1491 2.00012 13.7212C1.9993 14.4825 2.34546 15.2028 2.94049 15.6777C3.38759 16.0346 3.94396 16.1344 4.43254 16.1788C4.92905 16.2239 5.56628 16.2239 6.32432 16.2239H6.97918C7.41572 16.2239 7.68299 16.2246 7.88295 16.241C7.9761 16.2486 8.03246 16.2582 8.06668 16.2662C8.08297 16.27 8.09298 16.2733 8.0984 16.2752C8.1036 16.277 8.10618 16.2784 8.10618 16.2784C8.20026 16.3263 8.27675 16.4028 8.32469 16.4969C8.32469 16.4969 8.32529 16.4981 8.32607 16.5C8.32607 16.5 8.32715 16.5027 8.32786 16.5047C8.32979 16.5101 8.333 16.5201 8.33684 16.5364C8.3449 16.5706 8.35446 16.6269 8.36207 16.7201C8.37841 16.9201 8.37918 17.1873 8.37918 17.6239V19.4312C8.37917 20.4386 8.37916 21.2601 8.43181 21.8809C8.48079 22.4584 8.58763 23.1457 9.03311 23.6335C9.59912 24.2533 10.4384 24.5477 11.2676 24.4173C11.9202 24.3147 12.433 23.8448 12.832 23.4244C13.2609 22.9725 13.774 22.3311 14.4033 21.5445L19.0708 15.7101C19.5444 15.1182 19.9425 14.6206 20.2174 14.2047C20.488 13.7954 20.7576 13.2986 20.7582 12.7266C20.7591 11.9652 20.4129 11.245 19.8179 10.77C19.3708 10.4131 18.8144 10.3133 18.3258 10.2689C17.8293 10.2238 17.1921 10.2238 16.434 10.2239H15.7792C15.3426 10.2239 15.0754 10.2231 14.8754 10.2068C14.7823 10.1991 14.7259 10.1896 14.6917 10.1815C14.6754 10.1777 14.6654 10.1745 14.66 10.1725C14.6548 10.1707 14.6522 10.1694 14.6522 10.1694C14.5581 10.1214 14.4816 10.0449 14.4337 9.95086C14.4337 9.95086 14.4324 9.94828 14.4305 9.94308C14.4286 9.93766 14.4254 9.92765 14.4215 9.91137C14.4135 9.87714 14.4039 9.82078 14.3963 9.72763C14.38 9.52767 14.3792 9.26041 14.3792 8.82387V7.01658C14.3792 6.00914 14.3792 5.18765 14.3266 4.56687C14.2776 3.98931 14.1707 3.30204 13.7253 2.81421Z" fill="white"/>
<path fill-rule="evenodd" clip-rule="evenodd" d="M11.8246 4.00303C11.8116 4.01251 11.6793 4.08165 11.3769 4.40025C11.0137 4.78294 10.5534 5.35684 9.88597 6.19117L5.27947 11.9493C4.76771 12.589 4.42794 13.0153 4.20927 13.346C4.03291 13.6128 4.00413 13.7203 4.00023 13.7341C4.00319 13.8788 4.06871 14.0151 4.17984 14.1078C4.19309 14.1134 4.29499 14.1581 4.61346 14.187C5.00834 14.2229 5.55347 14.2239 6.37268 14.2239L7.01525 14.2239C7.40435 14.2238 7.75449 14.2238 8.04581 14.2476C8.35778 14.2731 8.68926 14.3308 9.01416 14.4963C9.48457 14.736 9.86702 15.1185 10.1067 15.5889C10.2722 15.9138 10.3299 16.2453 10.3554 16.5572C10.3792 16.8486 10.3792 17.1987 10.3792 17.5878L10.3792 19.382C10.3792 20.4505 10.3801 21.1861 10.4247 21.7119C10.4618 22.1496 10.5219 22.2862 10.5261 22.3017C10.6333 22.4086 10.7833 22.4613 10.9338 22.4447C10.9467 22.4352 11.079 22.3661 11.3814 22.0475C11.7447 21.6648 12.2049 21.0909 12.8724 20.2566L17.4789 14.4984C17.9907 13.8587 18.3304 13.4324 18.5491 13.1017C18.7255 12.8349 18.7542 12.7275 18.7581 12.7136C18.7552 12.5689 18.6897 12.4326 18.5785 12.3399C18.5653 12.3343 18.4634 12.2897 18.1449 12.2607C17.75 12.2249 17.2049 12.2239 16.3857 12.2239L15.7431 12.2239C15.354 12.2239 15.0039 12.2239 14.7126 12.2001C14.4006 12.1746 14.0691 12.1169 13.7442 11.9514C13.2738 11.7117 12.8914 11.3292 12.6517 10.8588C12.4861 10.5339 12.4284 10.2025 12.4029 9.89049C12.3791 9.59917 12.3792 9.24903 12.3792 8.85993L12.3792 7.06574C12.3792 5.99728 12.3783 5.26163 12.3337 4.73588C12.2966 4.29817 12.2365 4.16154 12.2323 4.14605C12.1251 4.0391 11.9751 3.98647 11.8246 4.00303ZM11.4908 2.0304C12.32 1.89998 13.1592 2.19439 13.7253 2.81421C14.1707 3.30204 14.2776 3.98931 14.3266 4.56687C14.3792 5.18765 14.3792 6.00914 14.3792 7.01658V8.82387C14.3792 9.26041 14.38 9.52767 14.3963 9.72763C14.4039 9.82078 14.4135 9.87714 14.4215 9.91137C14.4254 9.92765 14.4286 9.93766 14.4305 9.94308C14.4324 9.94828 14.4335 9.95046 14.4337 9.95086C14.4816 10.0449 14.5581 10.1214 14.6522 10.1694C14.6526 10.1696 14.6548 10.1707 14.66 10.1725C14.6654 10.1745 14.6754 10.1777 14.6917 10.1815C14.7259 10.1896 14.7823 10.1991 14.8754 10.2067C15.0754 10.2231 15.3426 10.2239 15.7792 10.2239H16.434C17.1921 10.2238 17.8293 10.2238 18.3258 10.2689C18.8144 10.3133 19.3708 10.4131 19.8179 10.77C20.4129 11.245 20.7591 11.9652 20.7582 12.7266C20.7576 13.2986 20.488 13.7954 20.2174 14.2047C19.9425 14.6206 19.5444 15.1181 19.0708 15.7101L14.4034 21.5444C13.7741 22.331 13.2609 22.9725 12.832 23.4244C12.433 23.8448 11.9202 24.3147 11.2676 24.4173C10.4384 24.5477 9.59912 24.2533 9.03311 23.6335C8.58763 23.1457 8.48079 22.4584 8.43181 21.8809C8.37916 21.2601 8.37917 20.4386 8.37918 19.4312V17.6239C8.37918 17.1873 8.37841 16.9201 8.36207 16.7201C8.35446 16.6269 8.3449 16.5706 8.33684 16.5364C8.333 16.5201 8.32979 16.5101 8.32786 16.5047C8.326 16.4995 8.32489 16.4973 8.32469 16.4969C8.27675 16.4028 8.20026 16.3263 8.10618 16.2784C8.10578 16.2782 8.1036 16.277 8.0984 16.2752C8.09298 16.2733 8.08297 16.27 8.06669 16.2662C8.03246 16.2582 7.9761 16.2486 7.88295 16.241C7.68299 16.2246 7.41572 16.2239 6.97918 16.2239H6.32432C5.56628 16.2239 4.92905 16.2239 4.43254 16.1788C3.94396 16.1344 3.38759 16.0346 2.94049 15.6777C2.34546 15.2028 1.9993 14.4825 2.00012 13.7212C2.00074 13.1491 2.27036 12.6523 2.54092 12.243C2.81587 11.8272 3.21395 11.3296 3.68751 10.7377L8.35494 4.90339C8.98427 4.1167 9.49745 3.47522 9.92635 3.02336C10.3254 2.60296 10.8382 2.13303 11.4908 2.0304Z" fill="black"/>
</svg>
