<svg viewBox="0 0 20 24" fill="none" xmlns="http://www.w3.org/2000/svg">
<path d="M3.1193 10.1007L7.7258 4.3426C9.03663 2.70405 9.69205 1.88478 10.2668 1.79438C10.7643 1.71613 11.2679 1.89277 11.6075 2.26467C11.9999 2.69432 11.9999 3.7435 11.9999 5.84186V7.59999C11.9999 8.44007 11.9999 8.86011 12.1634 9.18097C12.3072 9.46322 12.5367 9.69269 12.8189 9.8365C13.1398 9.99999 13.5598 9.99999 14.3999 9.99999H15.0064C16.6049 9.99999 17.4042 9.99999 17.8147 10.3277C18.1717 10.6127 18.3794 11.0448 18.3789 11.5016C18.3784 12.0269 17.8791 12.651 16.8805 13.8993L12.274 19.6574C10.9631 21.2959 10.3077 22.1152 9.73293 22.2056C9.23542 22.2838 8.73185 22.1072 8.39223 21.7353C7.99988 21.3057 7.99988 20.2565 7.99988 18.1581V16.4C7.99988 15.5599 7.99988 15.1399 7.83639 14.819C7.69258 14.5368 7.46311 14.3073 7.18087 14.1635C6.86 14 6.43996 14 5.59988 14H4.99338C3.39483 14 2.59556 14 2.18504 13.6723C1.82802 13.3873 1.62033 12.9552 1.62082 12.4984C1.62139 11.9731 2.12069 11.349 3.1193 10.1007Z" fill="white"/>
<path fill-rule="evenodd" clip-rule="evenodd" d="M10.4454 2.77915C10.4325 2.78863 10.3002 2.85777 9.99774 3.17638C9.63449 3.55907 9.17425 4.13296 8.50679 4.96729L3.90029 10.7254C3.38853 11.3651 3.04876 11.7914 2.83009 12.1222C2.65373 12.3889 2.62495 12.4964 2.62105 12.5102C2.62401 12.6549 2.68953 12.7912 2.80065 12.8839C2.81391 12.8895 2.91581 12.9342 3.23428 12.9631C3.62915 12.999 4.17429 13 4.9935 13L5.63607 13C6.02517 13 6.37531 12.9999 6.66663 13.0237C6.9786 13.0492 7.31008 13.1069 7.63498 13.2725C8.10538 13.5122 8.48784 13.8946 8.72752 14.365C8.89307 14.6899 8.95076 15.0214 8.97625 15.3334C9.00005 15.6247 9.00003 15.9748 9.00001 16.3639L9 18.1581C9 19.2266 9.00088 19.9622 9.04547 20.488C9.08259 20.9257 9.1427 21.0623 9.14688 21.0778C9.25408 21.1848 9.40409 21.2374 9.55461 21.2208C9.56754 21.2113 9.69983 21.1422 10.0023 20.8236C10.3655 20.4409 10.8258 19.867 11.4932 19.0327L16.0997 13.2746C16.6115 12.6349 16.9512 12.2086 17.1699 11.8778C17.3463 11.611 17.3751 11.5036 17.379 11.4897C17.376 11.3451 17.3105 11.2087 17.1994 11.116C17.1861 11.1104 17.0842 11.0658 16.7657 11.0368C16.3709 11.001 15.8257 11 15.0065 11L14.3639 11C13.9748 11 13.6247 11 13.3334 10.9762C13.0214 10.9507 12.6899 10.8931 12.365 10.7275C11.8946 10.4878 11.5122 10.1054 11.2725 9.63496C11.1069 9.31006 11.0492 8.97859 11.0238 8.66662C11 8.3753 11 8.02515 11 7.63606L11 5.84186C11 4.7734 10.9991 4.03775 10.9545 3.512C10.9174 3.07429 10.8573 2.93766 10.8531 2.92217C10.7459 2.81522 10.5959 2.7626 10.4454 2.77915ZM10.1116 0.806518C10.9408 0.676106 11.7801 0.970514 12.3461 1.59034C12.7916 2.07816 12.8984 2.76543 12.9474 3.34299C13 3.96377 13 4.78526 13 5.7927V7.59999C13 8.03653 13.0008 8.30379 13.0171 8.50375C13.0247 8.5969 13.0343 8.65326 13.0423 8.68749C13.0462 8.70377 13.0494 8.71379 13.0513 8.7192C13.0532 8.7244 13.0545 8.72698 13.0545 8.72698C13.1024 8.82106 13.1789 8.89756 13.273 8.94549C13.273 8.94549 13.2756 8.94681 13.2808 8.94866C13.2862 8.9506 13.2962 8.95381 13.3125 8.95764C13.3467 8.9657 13.4031 8.97526 13.4962 8.98287C13.6962 8.99921 13.9635 8.99999 14.4 8.99999H15.0549C15.8129 8.99997 16.4501 8.99995 16.9466 9.04505C17.4352 9.08943 17.9916 9.18924 18.4387 9.54613C19.0337 10.0211 19.3799 10.7413 19.3791 11.5027C19.3784 12.0748 19.1088 12.5716 18.8383 12.9808C18.5633 13.3967 18.1652 13.8943 17.6917 14.4862L13.0242 20.3205C12.3949 21.1072 11.8817 21.7486 11.4528 22.2005C11.0538 22.6209 10.541 23.0908 9.88842 23.1935C9.05924 23.3239 8.21994 23.0295 7.65393 22.4096C7.20845 21.9218 7.10161 21.2345 7.05262 20.657C6.99998 20.0362 6.99999 19.2147 7 18.2073V16.4C7 15.9634 6.99923 15.6962 6.98289 15.4962C6.97528 15.4031 6.96572 15.3467 6.95766 15.3125C6.95382 15.2962 6.95061 15.2862 6.94868 15.2808C6.94682 15.2756 6.94551 15.273 6.94551 15.273C6.89757 15.1789 6.82108 15.1024 6.727 15.0545C6.727 15.0545 6.72442 15.0532 6.71922 15.0513C6.7138 15.0494 6.70378 15.0462 6.6875 15.0423C6.65328 15.0343 6.59692 15.0247 6.50377 15.0171C6.30381 15.0008 6.03654 15 5.6 15H4.94514C4.1871 15 3.54987 15 3.05336 14.9549C2.56478 14.9105 2.00841 14.8107 1.56131 14.4538C0.966283 13.9789 0.620121 13.2586 0.620943 12.4973C0.62156 11.9252 0.891176 11.4284 1.16174 11.0192C1.43669 10.6033 1.83477 10.1057 2.30833 9.51379L6.97576 3.67951C7.60509 2.89282 8.11827 2.25134 8.54717 1.79948C8.94622 1.37908 9.45899 0.909157 10.1116 0.806518Z" fill="black"/>
</svg>
